<mxfile host="app.diagrams.net" modified="2023-08-02T14:22:08.684Z" agent="Mozilla/5.0 (Windows NT 10.0; Win64; x64) AppleWebKit/537.36 (KHTML, like Gecko) Chrome/115.0.0.0 Safari/537.36" etag="fz8W6xHjR0ZiFawpAoyg" version="21.6.6" type="github">
  <diagram id="C5RBs43oDa-KdzZeNtuy" name="Page-1">
    <mxGraphModel dx="1702" dy="452" grid="1" gridSize="10" guides="1" tooltips="1" connect="1" arrows="1" fold="1" page="1" pageScale="1" pageWidth="827" pageHeight="1169" math="0" shadow="0">
      <root>
        <mxCell id="WIyWlLk6GJQsqaUBKTNV-0" />
        <mxCell id="WIyWlLk6GJQsqaUBKTNV-1" parent="WIyWlLk6GJQsqaUBKTNV-0" />
        <mxCell id="GdVXnzEpVyFlEjYMwNEM-37" style="edgeStyle=orthogonalEdgeStyle;rounded=0;orthogonalLoop=1;jettySize=auto;html=1;exitX=0.5;exitY=1;exitDx=0;exitDy=0;entryX=0.5;entryY=0;entryDx=0;entryDy=0;" parent="WIyWlLk6GJQsqaUBKTNV-1" source="GdVXnzEpVyFlEjYMwNEM-16" target="GdVXnzEpVyFlEjYMwNEM-36" edge="1">
          <mxGeometry relative="1" as="geometry" />
        </mxCell>
        <mxCell id="GdVXnzEpVyFlEjYMwNEM-16" value="" style="shape=loopLimit;whiteSpace=wrap;html=1;" parent="WIyWlLk6GJQsqaUBKTNV-1" vertex="1">
          <mxGeometry x="408.51" y="780" width="703" height="780" as="geometry" />
        </mxCell>
        <mxCell id="pgyLf31vsVKfyvSoMUgz-14" style="edgeStyle=orthogonalEdgeStyle;rounded=0;orthogonalLoop=1;jettySize=auto;html=1;exitX=0.5;exitY=1;exitDx=0;exitDy=0;" parent="WIyWlLk6GJQsqaUBKTNV-1" source="pgyLf31vsVKfyvSoMUgz-1" target="pgyLf31vsVKfyvSoMUgz-5" edge="1">
          <mxGeometry relative="1" as="geometry" />
        </mxCell>
        <mxCell id="pgyLf31vsVKfyvSoMUgz-1" value="开始" style="rounded=1;whiteSpace=wrap;html=1;fontSize=12;glass=0;strokeWidth=1;shadow=0;" parent="WIyWlLk6GJQsqaUBKTNV-1" vertex="1">
          <mxGeometry x="700" y="80" width="120" height="40" as="geometry" />
        </mxCell>
        <mxCell id="pgyLf31vsVKfyvSoMUgz-15" style="edgeStyle=orthogonalEdgeStyle;rounded=0;orthogonalLoop=1;jettySize=auto;html=1;exitX=0.5;exitY=1;exitDx=0;exitDy=0;" parent="WIyWlLk6GJQsqaUBKTNV-1" source="pgyLf31vsVKfyvSoMUgz-5" edge="1">
          <mxGeometry relative="1" as="geometry">
            <mxPoint x="760" y="280" as="targetPoint" />
          </mxGeometry>
        </mxCell>
        <mxCell id="pgyLf31vsVKfyvSoMUgz-5" value="&lt;br style=&quot;border-color: var(--border-color);&quot;&gt;NioEventLoop.processSelectedKey,&lt;br&gt;这里会进行轮询" style="rounded=1;whiteSpace=wrap;html=1;fontSize=12;glass=0;strokeWidth=1;shadow=0;" parent="WIyWlLk6GJQsqaUBKTNV-1" vertex="1">
          <mxGeometry x="670" y="170" width="180" height="60" as="geometry" />
        </mxCell>
        <mxCell id="pgyLf31vsVKfyvSoMUgz-9" value="Repair Lamp" style="rounded=1;whiteSpace=wrap;html=1;fontSize=12;glass=0;strokeWidth=1;shadow=0;" parent="WIyWlLk6GJQsqaUBKTNV-1" vertex="1">
          <mxGeometry x="700" y="1740" width="120" height="40" as="geometry" />
        </mxCell>
        <mxCell id="pgyLf31vsVKfyvSoMUgz-11" value="Netty读取数据流程" style="text;html=1;align=center;verticalAlign=middle;resizable=0;points=[];autosize=1;strokeColor=none;fillColor=none;" parent="WIyWlLk6GJQsqaUBKTNV-1" vertex="1">
          <mxGeometry x="680" y="28" width="120" height="30" as="geometry" />
        </mxCell>
        <mxCell id="pgyLf31vsVKfyvSoMUgz-20" value="" style="edgeStyle=orthogonalEdgeStyle;rounded=0;orthogonalLoop=1;jettySize=auto;html=1;" parent="WIyWlLk6GJQsqaUBKTNV-1" source="pgyLf31vsVKfyvSoMUgz-16" target="pgyLf31vsVKfyvSoMUgz-19" edge="1">
          <mxGeometry relative="1" as="geometry" />
        </mxCell>
        <mxCell id="pgyLf31vsVKfyvSoMUgz-16" value="AbstractNioChannel.NioUnsafe#read" style="rounded=1;whiteSpace=wrap;html=1;" parent="WIyWlLk6GJQsqaUBKTNV-1" vertex="1">
          <mxGeometry x="645" y="280" width="230" height="80" as="geometry" />
        </mxCell>
        <mxCell id="pgyLf31vsVKfyvSoMUgz-17" value="这里会去进行读取操作，根据不同的NioChannal类型，&lt;br&gt;调用不同的子类实现类方法，对于读事件调用&lt;br&gt;AbstractNioByteChannel.NioByteUnsafe#read方法，对于创建连接事件，&lt;br&gt;调用AbstractNioMessageChannel.NioMessageUnsafe#read" style="text;html=1;align=center;verticalAlign=middle;resizable=0;points=[];autosize=1;strokeColor=none;fillColor=none;" parent="WIyWlLk6GJQsqaUBKTNV-1" vertex="1">
          <mxGeometry x="910" y="280" width="410" height="70" as="geometry" />
        </mxCell>
        <mxCell id="pgyLf31vsVKfyvSoMUgz-22" value="" style="edgeStyle=orthogonalEdgeStyle;rounded=0;orthogonalLoop=1;jettySize=auto;html=1;" parent="WIyWlLk6GJQsqaUBKTNV-1" source="pgyLf31vsVKfyvSoMUgz-19" target="pgyLf31vsVKfyvSoMUgz-21" edge="1">
          <mxGeometry relative="1" as="geometry" />
        </mxCell>
        <UserObject label="DefaultMaxMessagesRecvByteBufAllocator.&lt;br&gt;MaxMessageHandle#allocate&lt;br&gt;预估读取的数据大小，将数据读取到其中" link="io.netty.channel.DefaultMaxMessagesRecvByteBufAllocator.MaxMessageHandle#allocate" id="pgyLf31vsVKfyvSoMUgz-19">
          <mxCell style="whiteSpace=wrap;html=1;rounded=1;" parent="WIyWlLk6GJQsqaUBKTNV-1" vertex="1">
            <mxGeometry x="625" y="400" width="270" height="80" as="geometry" />
          </mxCell>
        </UserObject>
        <mxCell id="GdVXnzEpVyFlEjYMwNEM-18" style="edgeStyle=orthogonalEdgeStyle;rounded=0;orthogonalLoop=1;jettySize=auto;html=1;exitX=0.5;exitY=1;exitDx=0;exitDy=0;entryX=0.5;entryY=0;entryDx=0;entryDy=0;" parent="WIyWlLk6GJQsqaUBKTNV-1" source="pgyLf31vsVKfyvSoMUgz-21" target="GdVXnzEpVyFlEjYMwNEM-0" edge="1">
          <mxGeometry relative="1" as="geometry" />
        </mxCell>
        <mxCell id="pgyLf31vsVKfyvSoMUgz-21" value="读取完成，将数据传播到pinepine中io.netty.channel.ChannelPipeline#fireChannelRead" style="whiteSpace=wrap;html=1;rounded=1;" parent="WIyWlLk6GJQsqaUBKTNV-1" vertex="1">
          <mxGeometry x="627.5" y="530" width="265" height="80" as="geometry" />
        </mxCell>
        <mxCell id="GdVXnzEpVyFlEjYMwNEM-27" style="edgeStyle=orthogonalEdgeStyle;rounded=0;orthogonalLoop=1;jettySize=auto;html=1;exitX=0.5;exitY=1;exitDx=0;exitDy=0;entryX=0.5;entryY=0;entryDx=0;entryDy=0;" parent="WIyWlLk6GJQsqaUBKTNV-1" source="GdVXnzEpVyFlEjYMwNEM-0" target="GdVXnzEpVyFlEjYMwNEM-16" edge="1">
          <mxGeometry relative="1" as="geometry" />
        </mxCell>
        <mxCell id="GdVXnzEpVyFlEjYMwNEM-0" value="接着调用DefaultChannelPipeline#fireChannelRead&lt;br&gt;此方法指定head pineline节点" style="whiteSpace=wrap;html=1;rounded=1;" parent="WIyWlLk6GJQsqaUBKTNV-1" vertex="1">
          <mxGeometry x="627.5" y="660" width="265" height="80" as="geometry" />
        </mxCell>
        <mxCell id="GdVXnzEpVyFlEjYMwNEM-4" value="接着调用AbstractChannelHandlerContext#invokeChannelRead&lt;br&gt;其中调用findContextInbound方法，找到当前节点的下一节点" style="whiteSpace=wrap;html=1;rounded=1;" parent="WIyWlLk6GJQsqaUBKTNV-1" vertex="1">
          <mxGeometry x="608.75" y="810" width="302.5" height="80" as="geometry" />
        </mxCell>
        <mxCell id="GdVXnzEpVyFlEjYMwNEM-25" style="edgeStyle=orthogonalEdgeStyle;rounded=0;orthogonalLoop=1;jettySize=auto;html=1;exitX=0.5;exitY=1;exitDx=0;exitDy=0;entryX=0.5;entryY=0;entryDx=0;entryDy=0;" parent="WIyWlLk6GJQsqaUBKTNV-1" source="GdVXnzEpVyFlEjYMwNEM-6" target="GdVXnzEpVyFlEjYMwNEM-22" edge="1">
          <mxGeometry relative="1" as="geometry" />
        </mxCell>
        <mxCell id="GdVXnzEpVyFlEjYMwNEM-6" value="接着调用本类中的AbstractChannelHandlerContext#invokeChannelRead&lt;br&gt;其中调用目标channelhandlerContext的channelRead方法，这里开始真正的执行handler的channelRead方法" style="whiteSpace=wrap;html=1;rounded=1;" parent="WIyWlLk6GJQsqaUBKTNV-1" vertex="1">
          <mxGeometry x="599.38" y="922.5" width="321.25" height="90" as="geometry" />
        </mxCell>
        <mxCell id="GdVXnzEpVyFlEjYMwNEM-29" style="edgeStyle=orthogonalEdgeStyle;rounded=0;orthogonalLoop=1;jettySize=auto;html=1;exitX=0.5;exitY=1;exitDx=0;exitDy=0;entryX=0.5;entryY=0;entryDx=0;entryDy=0;" parent="WIyWlLk6GJQsqaUBKTNV-1" source="GdVXnzEpVyFlEjYMwNEM-13" target="GdVXnzEpVyFlEjYMwNEM-28" edge="1">
          <mxGeometry relative="1" as="geometry" />
        </mxCell>
        <mxCell id="GdVXnzEpVyFlEjYMwNEM-13" value="接着调用DefaultChannelPipeline#fireChannelRead" style="whiteSpace=wrap;html=1;rounded=1;" parent="WIyWlLk6GJQsqaUBKTNV-1" vertex="1">
          <mxGeometry x="630.62" y="1172.5" width="265" height="80" as="geometry" />
        </mxCell>
        <mxCell id="GdVXnzEpVyFlEjYMwNEM-20" value="首次执行会执行到DefaultChannelPipeline.HeadContext#channelRead&lt;br&gt;因为pineline节点中的头节点是head" style="text;html=1;strokeColor=none;fillColor=none;align=center;verticalAlign=middle;whiteSpace=wrap;rounded=0;" parent="WIyWlLk6GJQsqaUBKTNV-1" vertex="1">
          <mxGeometry x="940.62" y="1095" width="260" height="110" as="geometry" />
        </mxCell>
        <mxCell id="GdVXnzEpVyFlEjYMwNEM-24" style="edgeStyle=orthogonalEdgeStyle;rounded=0;orthogonalLoop=1;jettySize=auto;html=1;exitX=0.5;exitY=1;exitDx=0;exitDy=0;entryX=0.5;entryY=0;entryDx=0;entryDy=0;" parent="WIyWlLk6GJQsqaUBKTNV-1" source="GdVXnzEpVyFlEjYMwNEM-22" target="GdVXnzEpVyFlEjYMwNEM-13" edge="1">
          <mxGeometry relative="1" as="geometry" />
        </mxCell>
        <mxCell id="GdVXnzEpVyFlEjYMwNEM-22" value="调用目标pinline中的channelRead方法， 执行业务逻辑，执行完毕后会调用ChannelHandlerContext#fireChannelRead方法" style="rounded=0;whiteSpace=wrap;html=1;" parent="WIyWlLk6GJQsqaUBKTNV-1" vertex="1">
          <mxGeometry x="610" y="1052.5" width="301.25" height="90" as="geometry" />
        </mxCell>
        <mxCell id="GdVXnzEpVyFlEjYMwNEM-31" style="edgeStyle=orthogonalEdgeStyle;rounded=0;orthogonalLoop=1;jettySize=auto;html=1;exitX=0.5;exitY=1;exitDx=0;exitDy=0;entryX=0.5;entryY=0;entryDx=0;entryDy=0;" parent="WIyWlLk6GJQsqaUBKTNV-1" source="GdVXnzEpVyFlEjYMwNEM-28" target="GdVXnzEpVyFlEjYMwNEM-30" edge="1">
          <mxGeometry relative="1" as="geometry" />
        </mxCell>
        <mxCell id="GdVXnzEpVyFlEjYMwNEM-28" value="调用目标pinline中的channelRead方法， 执行业务逻辑，执行完毕后会调用ChannelHandlerContext#fireChannelRead方法" style="rounded=0;whiteSpace=wrap;html=1;" parent="WIyWlLk6GJQsqaUBKTNV-1" vertex="1">
          <mxGeometry x="611.25" y="1287.5" width="301.25" height="90" as="geometry" />
        </mxCell>
        <mxCell id="GdVXnzEpVyFlEjYMwNEM-32" style="edgeStyle=orthogonalEdgeStyle;rounded=0;orthogonalLoop=1;jettySize=auto;html=1;exitX=0;exitY=0.5;exitDx=0;exitDy=0;entryX=0;entryY=0.5;entryDx=0;entryDy=0;" parent="WIyWlLk6GJQsqaUBKTNV-1" source="GdVXnzEpVyFlEjYMwNEM-30" target="GdVXnzEpVyFlEjYMwNEM-4" edge="1">
          <mxGeometry relative="1" as="geometry">
            <Array as="points">
              <mxPoint x="500" y="1465" />
              <mxPoint x="500" y="850" />
            </Array>
          </mxGeometry>
        </mxCell>
        <mxCell id="GdVXnzEpVyFlEjYMwNEM-30" value="调用到AbstractChannelHandlerContext#fireChannelRead，此方法会找到下一个pineline节点，重新回到第一步进行执行" style="rounded=0;whiteSpace=wrap;html=1;" parent="WIyWlLk6GJQsqaUBKTNV-1" vertex="1">
          <mxGeometry x="611.25" y="1420" width="301.25" height="90" as="geometry" />
        </mxCell>
        <mxCell id="GdVXnzEpVyFlEjYMwNEM-36" value="readComplete()" style="whiteSpace=wrap;html=1;" parent="WIyWlLk6GJQsqaUBKTNV-1" vertex="1">
          <mxGeometry x="700" y="1600" width="120" height="60" as="geometry" />
        </mxCell>
        <mxCell id="GdVXnzEpVyFlEjYMwNEM-39" value="Netty中的pinpline实际上是一个DefaultChannelPipeline,该对象包含两个属性&lt;br&gt;AbstractChannelHandlerContext&amp;nbsp;head、&lt;br&gt;AbstractChannelHandlerContext&amp;nbsp;tail作为默认的头节点和尾节点，AbstractChannelHandlerContext构成一个链表结构，该对象包含指向其他AbstractChannelHandlerContext的前驱和后继节点" style="text;html=1;strokeColor=none;fillColor=none;align=center;verticalAlign=middle;whiteSpace=wrap;rounded=0;" parent="WIyWlLk6GJQsqaUBKTNV-1" vertex="1">
          <mxGeometry x="1170" y="1230" width="359.38" height="87.5" as="geometry" />
        </mxCell>
        <mxCell id="eDhqZ8a0nptcuUZ7Z_iJ-0" value="开始" style="rounded=1;whiteSpace=wrap;html=1;fontSize=12;glass=0;strokeWidth=1;shadow=0;" vertex="1" parent="WIyWlLk6GJQsqaUBKTNV-1">
          <mxGeometry x="260" y="50" width="120" height="40" as="geometry" />
        </mxCell>
        <mxCell id="eDhqZ8a0nptcuUZ7Z_iJ-1" value="结束" style="rounded=1;whiteSpace=wrap;html=1;fontSize=12;glass=0;strokeWidth=1;shadow=0;" vertex="1" parent="WIyWlLk6GJQsqaUBKTNV-1">
          <mxGeometry x="310" y="360" width="120" height="40" as="geometry" />
        </mxCell>
        <mxCell id="eDhqZ8a0nptcuUZ7Z_iJ-10" value="" style="edgeStyle=orthogonalEdgeStyle;rounded=0;orthogonalLoop=1;jettySize=auto;html=1;" edge="1" parent="WIyWlLk6GJQsqaUBKTNV-1" source="eDhqZ8a0nptcuUZ7Z_iJ-2" target="eDhqZ8a0nptcuUZ7Z_iJ-9">
          <mxGeometry relative="1" as="geometry" />
        </mxCell>
        <mxCell id="eDhqZ8a0nptcuUZ7Z_iJ-2" value="创建NioEventGroupLoop bossGroup和workerGroup&lt;br&gt;" style="rounded=0;whiteSpace=wrap;html=1;fillColor=#FF99CC;" vertex="1" parent="WIyWlLk6GJQsqaUBKTNV-1">
          <mxGeometry x="106.25" y="160" width="147.5" height="50" as="geometry" />
        </mxCell>
        <mxCell id="eDhqZ8a0nptcuUZ7Z_iJ-8" value="主线程" style="text;html=1;align=center;verticalAlign=middle;resizable=0;points=[];autosize=1;strokeColor=none;fillColor=#FF99CC;" vertex="1" parent="WIyWlLk6GJQsqaUBKTNV-1">
          <mxGeometry x="-30" y="290" width="60" height="30" as="geometry" />
        </mxCell>
        <mxCell id="eDhqZ8a0nptcuUZ7Z_iJ-12" value="" style="edgeStyle=orthogonalEdgeStyle;rounded=0;orthogonalLoop=1;jettySize=auto;html=1;" edge="1" parent="WIyWlLk6GJQsqaUBKTNV-1" source="eDhqZ8a0nptcuUZ7Z_iJ-9" target="eDhqZ8a0nptcuUZ7Z_iJ-11">
          <mxGeometry relative="1" as="geometry" />
        </mxCell>
        <mxCell id="eDhqZ8a0nptcuUZ7Z_iJ-9" value="NioEventLoopGroup构造函数会调用到&lt;br&gt;NioEventLoop#openSelector 创建Selector" style="whiteSpace=wrap;html=1;rounded=0;fillColor=#FF99CC;" vertex="1" parent="WIyWlLk6GJQsqaUBKTNV-1">
          <mxGeometry x="81.88" y="240" width="196.25" height="70" as="geometry" />
        </mxCell>
        <mxCell id="eDhqZ8a0nptcuUZ7Z_iJ-14" value="" style="edgeStyle=orthogonalEdgeStyle;rounded=0;orthogonalLoop=1;jettySize=auto;html=1;" edge="1" parent="WIyWlLk6GJQsqaUBKTNV-1" source="eDhqZ8a0nptcuUZ7Z_iJ-11" target="eDhqZ8a0nptcuUZ7Z_iJ-13">
          <mxGeometry relative="1" as="geometry" />
        </mxCell>
        <mxCell id="eDhqZ8a0nptcuUZ7Z_iJ-11" value="调用bind方法去绑定端口" style="whiteSpace=wrap;html=1;rounded=0;fillColor=#FF99CC;" vertex="1" parent="WIyWlLk6GJQsqaUBKTNV-1">
          <mxGeometry x="81.88" y="350" width="196.25" height="70" as="geometry" />
        </mxCell>
        <mxCell id="eDhqZ8a0nptcuUZ7Z_iJ-17" value="" style="edgeStyle=orthogonalEdgeStyle;rounded=0;orthogonalLoop=1;jettySize=auto;html=1;" edge="1" parent="WIyWlLk6GJQsqaUBKTNV-1" source="eDhqZ8a0nptcuUZ7Z_iJ-13" target="eDhqZ8a0nptcuUZ7Z_iJ-16">
          <mxGeometry relative="1" as="geometry" />
        </mxCell>
        <mxCell id="eDhqZ8a0nptcuUZ7Z_iJ-13" value="AbstractBootstrap#initAndRegister&lt;br&gt;通过工厂模式创建NioServerSocketChannel并进行初始化操作" style="whiteSpace=wrap;html=1;rounded=0;fillColor=#FF99CC;" vertex="1" parent="WIyWlLk6GJQsqaUBKTNV-1">
          <mxGeometry x="81.88" y="450" width="196.25" height="70" as="geometry" />
        </mxCell>
        <mxCell id="eDhqZ8a0nptcuUZ7Z_iJ-15" value="bossGroup 线程" style="text;html=1;align=center;verticalAlign=middle;resizable=0;points=[];autosize=1;strokeColor=none;fillColor=#99FFFF;" vertex="1" parent="WIyWlLk6GJQsqaUBKTNV-1">
          <mxGeometry x="-80" y="555" width="110" height="30" as="geometry" />
        </mxCell>
        <mxCell id="eDhqZ8a0nptcuUZ7Z_iJ-16" value="EventLoopGroup#register(io.netty.channel.Channel)&lt;br&gt;完成初始化后接下来是注册Channel到EventLoopGroup中" style="whiteSpace=wrap;html=1;fillColor=#FF99CC;rounded=0;" vertex="1" parent="WIyWlLk6GJQsqaUBKTNV-1">
          <mxGeometry x="90.01" y="550" width="179.99" height="70" as="geometry" />
        </mxCell>
      </root>
    </mxGraphModel>
  </diagram>
</mxfile>
